<?xml version="1.0" encoding="UTF-8"?>
<svg id="Layer_1" data-name="Layer 1" xmlns="http://www.w3.org/2000/svg" version="1.1" viewBox="0 0 732 364">
  <defs>
    <style>
      .cls-1 {
        font-size: 11px;
      }

      .cls-1, .cls-2, .cls-3, .cls-4, .cls-5, .cls-6 {
        fill: #000;
      }

      .cls-1, .cls-2, .cls-3, .cls-4, .cls-7 {
        isolation: isolate;
      }

      .cls-1, .cls-4, .cls-8 {
        font-family: Helvetica-Bold, Helvetica;
        font-weight: 700;
      }

      .cls-9 {
        stroke: #888;
      }

      .cls-9, .cls-10, .cls-11, .cls-12, .cls-13, .cls-14, .cls-15, .cls-16, .cls-17, .cls-18, .cls-19 {
        fill: none;
      }

      .cls-9, .cls-10, .cls-12, .cls-13, .cls-14, .cls-15, .cls-16, .cls-17, .cls-18, .cls-19 {
        stroke-miterlimit: 10;
      }

      .cls-2, .cls-3 {
        font-family: Helvetica, Helvetica;
        font-size: 10px;
      }

      .cls-10, .cls-12, .cls-14, .cls-19 {
        stroke-width: 2px;
      }

      .cls-10, .cls-12, .cls-16, .cls-6 {
        display: none;
      }

      .cls-10, .cls-14, .cls-17 {
        stroke: #f58518;
      }

      .cls-3 {
        opacity: 0;
      }

      .cls-11, .cls-20, .cls-5, .cls-21, .cls-6, .cls-22 {
        stroke-width: 0px;
      }

      .cls-12, .cls-15, .cls-19 {
        stroke: #4c78a8;
      }

      .cls-13, .cls-16 {
        stroke: #ddd;
      }

      .cls-20 {
        fill: #bdd2e5;
        opacity: .4;
      }

      .cls-4 {
        font-size: 18px;
      }

      .cls-15, .cls-17 {
        stroke-width: 8px;
      }

      .cls-21 {
        fill: #070300;
      }

      .cls-18 {
        stroke: #070300;
        stroke-width: 3px;
      }

      .cls-22 {
        fill: #f2f2f4;
      }

      .cls-8 {
        fill: #606060;
        font-size: 14px;
      }
    </style>
  </defs>
  <rect class="cls-22" width="732" height="364"/>
  <path class="cls-11" d="M58.5,327.5h0Z" pointer-events="none"/>
  <line class="cls-13" x1="58.5" y1="27.5" x2="58.5" y2="327.5"/>
  <path class="cls-13" d="M96.5,327.5"/>
  <path class="cls-13" d="M96.5,27.5"/>
  <path class="cls-13" d="M133.5,327.5"/>
  <path class="cls-13" d="M133.5,27.5"/>
  <path class="cls-13" d="M171.5,327.5"/>
  <path class="cls-13" d="M171.5,27.5"/>
  <path class="cls-13" d="M208.5,327.5"/>
  <path class="cls-13" d="M208.5,27.5"/>
  <path class="cls-13" d="M246.5,327.5"/>
  <path class="cls-13" d="M246.5,27.5"/>
  <path class="cls-13" d="M283.5,327.5"/>
  <path class="cls-13" d="M283.5,27.5"/>
  <path class="cls-13" d="M321.5,327.5"/>
  <path class="cls-13" d="M321.5,27.5"/>
  <path class="cls-13" d="M358.5,327.5"/>
  <path class="cls-13" d="M358.5,27.5"/>
  <path class="cls-13" d="M396.5,327.5"/>
  <path class="cls-13" d="M396.5,27.5"/>
  <path class="cls-13" d="M433.5,327.5"/>
  <path class="cls-13" d="M433.5,27.5"/>
  <path class="cls-13" d="M471.5,327.5"/>
  <path class="cls-13" d="M471.5,27.5"/>
  <path class="cls-13" d="M508.5,327.5"/>
  <path class="cls-13" d="M508.5,27.5"/>
  <path class="cls-13" d="M546.5,327.5"/>
  <path class="cls-13" d="M546.5,27.5"/>
  <path class="cls-13" d="M583.5,327.5"/>
  <path class="cls-13" d="M583.5,27.5"/>
  <path class="cls-13" d="M621.5,327.5"/>
  <path class="cls-13" d="M621.5,27.5"/>
  <path class="cls-13" d="M658.5,327.5"/>
  <path class="cls-13" d="M658.5,27.5"/>
  <path class="cls-16" d="M58.5,327.5" pointer-events="none"/>
  <path class="cls-11" d="M58.5,27.5h0Z" pointer-events="none"/>
  <line class="cls-13" x1="58.5" y1="327.5" x2="658.5" y2="327.5"/>
  <path class="cls-13" d="M658.5,277.5"/>
  <path class="cls-13" d="M58.5,277.5"/>
  <path class="cls-13" d="M658.5,227.5"/>
  <path class="cls-13" d="M58.5,227.5"/>
  <path class="cls-13" d="M658.5,177.5"/>
  <path class="cls-13" d="M58.5,177.5"/>
  <path class="cls-13" d="M658.5,127.5"/>
  <path class="cls-13" d="M58.5,127.5"/>
  <path class="cls-13" d="M658.5,77.5"/>
  <path class="cls-13" d="M58.5,77.5"/>
  <path class="cls-16" d="M58.5,27.5" pointer-events="none"/>
  <path class="cls-11" d="M58.5,327.5h0Z" pointer-events="none"/>
  <line class="cls-9" x1="58.5" y1="327.5" x2="58.5" y2="332.5"/>
  <line class="cls-9" x1="96.5" y1="327.5" x2="96.5" y2="332.5"/>
  <line class="cls-9" x1="133.5" y1="327.5" x2="133.5" y2="332.5"/>
  <line class="cls-9" x1="171.5" y1="327.5" x2="171.5" y2="332.5"/>
  <line class="cls-9" x1="208.5" y1="327.5" x2="208.5" y2="332.5"/>
  <line class="cls-9" x1="246.5" y1="327.5" x2="246.5" y2="332.5"/>
  <line class="cls-9" x1="283.5" y1="327.5" x2="283.5" y2="332.5"/>
  <line class="cls-9" x1="321.5" y1="327.5" x2="321.5" y2="332.5"/>
  <line class="cls-9" x1="358.5" y1="327.5" x2="358.5" y2="332.5"/>
  <line class="cls-9" x1="396.5" y1="327.5" x2="396.5" y2="332.5"/>
  <line class="cls-9" x1="433.5" y1="327.5" x2="433.5" y2="332.5"/>
  <line class="cls-9" x1="471.5" y1="327.5" x2="471.5" y2="332.5"/>
  <line class="cls-9" x1="508.5" y1="327.5" x2="508.5" y2="332.5"/>
  <line class="cls-9" x1="546.5" y1="327.5" x2="546.5" y2="332.5"/>
  <line class="cls-9" x1="583.5" y1="327.5" x2="583.5" y2="332.5"/>
  <line class="cls-9" x1="621.5" y1="327.5" x2="621.5" y2="332.5"/>
  <line class="cls-9" x1="658.5" y1="327.5" x2="658.5" y2="332.5"/>
  <text class="cls-2" transform="translate(58.5 342.5)"><tspan x="0" y="0">1880</tspan></text>
  <text class="cls-3" transform="translate(83.5 342.5)"><tspan x="0" y="0">1,890</tspan></text>
  <text class="cls-2" transform="translate(121 342.5)"><tspan x="0" y="0">1900</tspan></text>
  <text class="cls-3" transform="translate(158.5 342.5)"><tspan x="0" y="0">1,910</tspan></text>
  <text class="cls-2" transform="translate(196 342.5)"><tspan x="0" y="0">1920</tspan></text>
  <text class="cls-3" transform="translate(233.5 342.5)"><tspan x="0" y="0">1,930</tspan></text>
  <text class="cls-2" transform="translate(271 342.5)"><tspan x="0" y="0">1940</tspan></text>
  <text class="cls-3" transform="translate(308.5 342.5)"><tspan x="0" y="0">1,950</tspan></text>
  <text class="cls-2" transform="translate(346 342.5)"><tspan x="0" y="0">1960</tspan></text>
  <text class="cls-3" transform="translate(383.5 342.5)"><tspan x="0" y="0">1,970</tspan></text>
  <text class="cls-2" transform="translate(421 342.5)"><tspan x="0" y="0">1980</tspan></text>
  <text class="cls-3" transform="translate(458.5 342.5)"><tspan x="0" y="0">1,990</tspan></text>
  <text class="cls-2" transform="translate(496 342.5)"><tspan x="0" y="0">2000</tspan></text>
  <text class="cls-3" transform="translate(533.5 342.5)"><tspan x="0" y="0">2,010</tspan></text>
  <text class="cls-2" transform="translate(571 342.5)"><tspan x="0" y="0">2020</tspan></text>
  <text class="cls-3" transform="translate(608.5 342.5)"><tspan x="0" y="0">2,030</tspan></text>
  <text class="cls-2" transform="translate(633.5 342.5)"><tspan x="0" y="0">2040</tspan></text>
  <line class="cls-9" x1="58.5" y1="327.5" x2="658.5" y2="327.5"/>
  <text class="cls-1" transform="translate(346.9 357.5)"><tspan x="0" y="0">Year</tspan></text>
  <path class="cls-6" d="M58.5,327.5" pointer-events="none"/>
  <path class="cls-11" d="M58.5,27.5h0Z" pointer-events="none"/>
  <line class="cls-9" x1="58.5" y1="327.5" x2="53.5" y2="327.5"/>
  <line class="cls-9" x1="58.5" y1="277.5" x2="53.5" y2="277.5"/>
  <line class="cls-9" x1="58.5" y1="227.5" x2="53.5" y2="227.5"/>
  <line class="cls-9" x1="58.5" y1="177.5" x2="53.5" y2="177.5"/>
  <line class="cls-9" x1="58.5" y1="127.5" x2="53.5" y2="127.5"/>
  <line class="cls-9" x1="58.5" y1="77.5" x2="53.5" y2="77.5"/>
  <line class="cls-9" x1="58.5" y1="27.5" x2="53.5" y2="27.5"/>
  <text class="cls-2" transform="translate(45.9 330.5)"><tspan x="0" y="0">0</tspan></text>
  <text class="cls-2" transform="translate(20.9 280.5)"><tspan x="0" y="0">10,000</tspan></text>
  <text class="cls-2" transform="translate(20.9 230.5)"><tspan x="0" y="0">20,000</tspan></text>
  <text class="cls-2" transform="translate(20.9 180.5)"><tspan x="0" y="0">30,000</tspan></text>
  <text class="cls-2" transform="translate(20.9 130.5)"><tspan x="0" y="0">40,000</tspan></text>
  <text class="cls-2" transform="translate(20.9 80.5)"><tspan x="0" y="0">50,000</tspan></text>
  <text class="cls-2" transform="translate(20.9 30.5)"><tspan x="0" y="0">60,000</tspan></text>
  <line class="cls-9" x1="58.5" y1="327.5" x2="58.5" y2="27.5"/>
  <text class="cls-1" transform="translate(14.9 193.4) rotate(-90)"><tspan x="0" y="0">Count</tspan></text>
  <path class="cls-6" d="M58.5,27.5" pointer-events="none"/>
  <path class="cls-11" d="M658,327H58V27"/>
  <path class="cls-11" d="M658,27"/>
  <path class="cls-14" d="M58,323.4l3.8.4,3.8-.5,3.8.5,3.8-.5,3.8.4,3.8,3.3v-3.6l3.8,3.6v-3.1l3.8,3.1v-3.8l3.8,3.8v-3.5l3.8-.2,3.8.7,3.8,3v-4l3.8.4,3.8-.4,3.8,4v-3.6l3.8,3.6v-4.1l3.8,4.1v-3.5l3.8,3.4v-4.3l3.8,4.3v-3.7l3.8-2,3.8,5.7v-3.9l3.8,3.9v-4.5l3.8,4.5v-4.3l3.8,4.3v-4.7l3.8-.4,3.8,5.1v-5.4l3.8,5.4v-6.1l3.8,6.1v-6.2l3.8,6.2v-7.1l3.8,7.1v-8.2l3.8,8.2v-10.1l3.8,10v-20.8l3.8,20.8v-25.4l3.8,25.4v-33.2l3.8,33.1v-45.5l3.8,45.5v-50.5l3.8,50.4v-54.3l3.8,54.3v-61.4l3.8,61.2v-61.8l3.8,61.9v-74.8l3.8,74.7v-81.5l3.8,81.5v-87.3l3.8,87.3v-94l3.8,94v-105.8l3.8,105.7v-115.8l3.8,115.8v-125.1l3.8,124.9v-133l3.8,132.8v-143l3.8,143v-146.9l3.8,147.1v-160.1l3.8,160.1v-158.4l3.8,158.4v-158.3l3.8,158.4v-156l3.8,156v-165.2l3.8,165.2v-169.1l3.8,169.2v-167l3.8,166.9v-164.3l3.8,164.3v-171.3l3.8,171.4v-176.4l3.8,176.4v-186.6l3.8,186.5v-194.9l3.8,194.9V109.1l3.8,217.3V95.3l3.8,231.2V98.8l3.8,227.7V96.8l3.8,229.6V32.7l3.8,293.6V34.4l3.8,292V72.1l3.8,254.3V72.3l3.8,254.2V72l3.8,254.5V54.3l3.8,272.2V35.3l3.8,291.1V35.1l3.8,291.4V41.8l3.8,284.6V59.2l3.8,267.2V62.5l3.8,264V64.7l3.8,261.7V77.2l3.8,249.2V91.1l3.8,235.3V109.3l3.8,217.1V121.4l3.8,204.9v-196.3l3.8,196.3V123.1l3.8,203.2V126.5l3.8,199.8v-183.5l3.8,183.4v-171.6l3.8,171.5v-167.1l3.8,167.1v-164.1l3.8,164v-154.6l3.8,154.7v-151.4l3.8,151.5v-130.1l3.8,130.1v-110.8l3.8,110.8v-99l3.8,99.3v-92.7l3.8,92.5v-87.8l3.8,87.8v-83.1l3.8,83.1v-86.6l3.8,86.7v-83.2l3.8,83v-83l3.8,83v-82.7l3.8,82.7v-83.7l3.8,83.6v-82.9l3.8,83v-78.8l3.8,78.9v-77.5l3.8,77.5v-76.1l3.8,76v-74.4l3.8,74.5v-71.5l3.8,71.5v-70.2l3.8,70.4v-70.3l3.8,70.4v-67.6l3.8,67.6v-62.5l3.8,62.6v-56.5l3.8,56.5v-51l3.8,51v-47.4l3.8,47.5v-43.8l3.8,43.8v-40.8l3.8,40.8v-36.1l3.8,36.1v-34.7l3.8,34.7v-32.4l3.8,32.5v-31.7l3.8,31.7v-28.8l3.8,28.8v-26.6l3.8,26.6v-25.2l3.8,25.2v-24.1l3.8,24.2v-23.3l3.8,23.3v-22.3l3.8,22.3v-22.1l3.8,22.1v-20.3l3.8,20.3v-18l3.8,18v-16.2l3.8.4,3.8,15.8v-15.1l3.8,1.1,3.8-.4,3.8,1,3.8.8,3.8,1.2,3.8.7,3.8.8,3.8.8,3.8.2,3.8,8.9v-8.3l3.8.2"/>
  <path class="cls-10" d="M58,27"/>
  <path class="cls-11" d="M658,327H58V27"/>
  <path class="cls-11" d="M658,27"/>
  <path class="cls-19" d="M58,326.9h3.8s3.8,0,3.8,0h3.8s3.8-.1,3.8-.1h3.8s3.8,0,3.8,0h3.8s3.8,0,3.8,0h3.8s3.8,0,3.8,0h3.8c0,0,3.8,0,3.8,0h3.8s3.8,0,3.8,0h3.8s3.8,0,3.8,0h3.8s3.8,0,3.8,0h3.8s3.8,0,3.8,0h3.8c0,.1,3.8,0,3.8,0h3.8c0,0,3.8,0,3.8,0h3.8c0,0,3.8,0,3.8,0h3.8s3.8,0,3.8,0h3.8c0,0,3.8,0,3.8,0h3.8c0,0,3.8.2,3.8.2v-.4h3.8c0,0,3.8-.3,3.8-.3l3.8-.2,3.8-.3h3.8s3.8,1.1,3.8,1.1v-1.2h3.8c0,0,3.8,1.2,3.8,1.2v-1.6h3.8c0-.1,3.8-.2,3.8-.2h3.8c0,0,3.8-.4,3.8-.4l3.8,2.2v-2.8l3.8-.4,3.8-.6,3.8-.3,3.8,4.1v-4.2l3.8,4.2v-4.7l3.8,4.7v-4.9l3.8-.3,3.8,5.2v-5.2l3.8-.4,3.8.2h3.8s3.8.4,3.8.4l3.8.4,3.8.3,3.8-.2h3.8c0,0,3.8.2,3.8.2h3.8s3.8.3,3.8.3l3.8.2,3.8-.4,3.8.4,3.8,1,3.8,1.1,3.8.4h3.8c0,.1,3.8.3,3.8.3h3.8l3.8.2h3.8c0,0,3.8-.1,3.8-.1h3.8s3.8-.2,3.8-.2h3.8c0,0,3.8.2,3.8.2h3.8s3.8.2,3.8.2h3.8c0,0,3.8.2,3.8.2h3.8c0,0,3.8.2,3.8.2h3.8s3.8,0,3.8,0h3.8s3.8,0,3.8,0h3.8c0,0,3.8.1,3.8.1h3.8s3.8,0,3.8,0h3.8c0,0,3.8,0,3.8,0h3.8s3.8,0,3.8,0h3.8s3.8,0,3.8,0h3.8c0,0,3.8,0,3.8,0h3.8s3.8,0,3.8,0h3.8s3.8,0,3.8,0h3.8s7.5,0,7.5,0h11.2s3.8,0,3.8,0h45"/>
  <path class="cls-12" d="M58,27"/>
  <path class="cls-11" d="M676,27h51v40h-51V27Z" pointer-events="none"/>
  <path class="cls-11" d="M676,43h0Z" pointer-events="none"/>
  <path class="cls-11" d="M666.7,43h59.8v11h-59.8v-11Z" pointer-events="none"/>
  <path class="cls-15" d="M677,49h10"/>
  <g class="cls-7">
    <path class="cls-5" d="M692.8,44.8h2.9c1,0,1.7.3,2.3,1,.5.6.7,1.4.7,2.4s-.1,1.5-.4,2.1c-.5,1.1-1.4,1.6-2.6,1.6h-2.9v-7.2ZM695.5,51.2c.3,0,.6,0,.8-.1.4-.1.7-.4.9-.7.2-.3.3-.7.4-1.1,0-.3,0-.5,0-.8,0-.9-.2-1.6-.5-2.1-.3-.5-.9-.7-1.7-.7h-1.7v5.5h1.7Z"/>
    <path class="cls-5" d="M699.9,44.8h.9v1h-.9v-1ZM699.9,46.8h.9v5.2h-.9v-5.2Z"/>
    <path class="cls-5" d="M705.5,47c.4.3.6.8.7,1.5h-.9c0-.3-.2-.6-.4-.8-.2-.2-.5-.3-.9-.3s-1,.3-1.2.8c-.2.4-.2.8-.2,1.3s.1,1,.3,1.3c.2.4.6.5,1,.5s.7-.1.9-.3c.2-.2.4-.5.4-.9h.9c0,.7-.3,1.2-.7,1.5-.4.3-.9.5-1.5.5s-1.2-.2-1.6-.7c-.4-.5-.6-1.1-.6-1.9s.2-1.6.7-2.1,1-.8,1.7-.8,1.1.1,1.4.4Z"/>
    <path class="cls-5" d="M707.1,44.8h.8v4.2l2.3-2.2h1.1l-2,1.9,2.1,3.3h-1.1l-1.6-2.7-.7.7v2h-.8v-7.2Z"/>
  </g>
  <path class="cls-6" d="M676,43" pointer-events="none"/>
  <path class="cls-11" d="M676,56h50.5v11h-50.5v-11Z" pointer-events="none"/>
  <path class="cls-17" d="M677.4,62h9.6"/>
  <g class="cls-7">
    <path class="cls-5" d="M692.9,57.8h3.3c.5,0,1,0,1.3.2.7.3,1,.9,1,1.7s0,.8-.3,1.1c-.2.3-.4.5-.7.7.3.1.5.3.6.4.1.2.2.5.2.9v1c0,.3,0,.5.1.6,0,.2.2.4.3.4v.2h-1.2c0,0,0-.1,0-.2s0-.3,0-.6v-1.2c0-.5-.2-.8-.6-.9-.2,0-.5-.1-.8-.1h-2.1v3.1h-1v-7.2ZM696,61.1c.4,0,.8,0,1.1-.3.3-.2.4-.5.4-1s-.2-.9-.5-1c-.2,0-.5-.1-.8-.1h-2.3v2.5h2.2Z"/>
    <path class="cls-5" d="M699.9,57.8h.9v1h-.9v-1ZM699.9,59.8h.9v5.2h-.9v-5.2Z"/>
    <path class="cls-5" d="M705.5,60c.4.3.6.8.7,1.5h-.9c0-.3-.2-.6-.4-.8-.2-.2-.5-.3-.9-.3s-1,.3-1.2.8c-.2.4-.2.8-.2,1.3s.1,1,.3,1.3c.2.4.6.5,1,.5s.7-.1.9-.3c.2-.2.4-.5.4-.9h.9c0,.7-.3,1.2-.7,1.5-.4.3-.9.5-1.5.5s-1.2-.2-1.6-.7c-.4-.5-.6-1.1-.6-1.9s.2-1.6.7-2.1,1-.8,1.7-.8,1.1.1,1.4.4Z"/>
    <path class="cls-5" d="M707.1,57.8h.9v2.7c.2-.3.4-.4.6-.6.3-.2.6-.3,1.1-.3.8,0,1.3.3,1.5.8.1.3.2.7.2,1.2v3.4h-.9v-3.3c0-.4,0-.7-.1-.8-.2-.3-.5-.4-.9-.4s-.7.1-1,.4-.4.7-.4,1.4v2.8h-.9v-7.2Z"/>
    <path class="cls-5" d="M715.5,61.8c.2,0,.3-.1.4-.3,0,0,0-.2,0-.3,0-.3-.1-.5-.3-.7s-.5-.2-.9-.2-.8.1-1,.4c-.1.1-.2.3-.2.6h-.8c0-.6.2-1.1.6-1.3.4-.3.9-.4,1.4-.4s1.1.1,1.5.4c.4.2.6.6.6,1.1v3c0,0,0,.2,0,.2,0,0,.1,0,.2,0s0,0,.1,0c0,0,.1,0,.2,0v.6c-.1,0-.2,0-.3,0s-.2,0-.3,0c-.3,0-.5-.1-.7-.3,0-.1-.1-.3-.2-.5-.2.2-.4.4-.8.6s-.7.3-1.1.3-.9-.1-1.2-.4c-.3-.3-.5-.7-.5-1.1s.2-.9.5-1.1.7-.4,1.2-.5l1.4-.2ZM713.6,64.2c.2.1.4.2.7.2s.6,0,.9-.2c.5-.2.7-.6.7-1.2v-.7c-.1,0-.2.1-.4.2s-.3,0-.5,0h-.5c-.3.1-.6.2-.7.3-.3.2-.4.4-.4.7s0,.5.3.6Z"/>
    <path class="cls-5" d="M718.2,59.8h.8v.9c0-.2.2-.4.5-.6.3-.3.6-.4.9-.4s0,0,0,0,.1,0,.2,0v.9c0,0,0,0-.1,0,0,0,0,0-.1,0-.4,0-.8.1-1,.4-.2.3-.4.6-.4,1v3h-.9v-5.2Z"/>
    <path class="cls-5" d="M724.4,59.9c.2,0,.3.3.5.5v-2.6h.8v7.2h-.8v-.7c-.2.3-.4.6-.7.7s-.6.2-1,.2c-.6,0-1.1-.2-1.5-.7-.4-.5-.6-1.1-.6-2s.2-1.4.6-2c.4-.6.9-.8,1.7-.8s.7,0,1,.3ZM722.5,63.9c.2.4.6.6,1.1.6s.7-.2,1-.5c.3-.4.4-.9.4-1.5s-.1-1.1-.4-1.5c-.3-.3-.6-.5-1-.5s-.8.2-1.1.5-.4.8-.4,1.5.1,1,.4,1.4Z"/>
  </g>
  <path class="cls-6" d="M676,56" pointer-events="none"/>
  <path class="cls-6" d="M676,43" pointer-events="none"/>
  <text class="cls-1" transform="translate(676 36)"><tspan x="0" y="0">Name</tspan></text>
  <path class="cls-6" d="M676,27" pointer-events="none"/>
  <path class="cls-11" d="M358,5h0Z" pointer-events="none"/>
  <text class="cls-4" transform="translate(217.8 18.9)"><tspan x="0" y="0">Richard dwarfs Dick in popularity</tspan></text>
  <path class="cls-6" d="M358,5" pointer-events="none"/>
  <path class="cls-6" d="M58,27"/>
  <path class="cls-22" d="M290.5,326.4"/>
  <path class="cls-22" d="M133.5,457.7"/>
  <text/>
  <polyline class="cls-20" points="215.5 325.2 219.2 32 411.8 32 414.2 326.9"/>
  <path class="cls-22" d="M465.2,77.5"/>
  <path class="cls-22" d="M446.1-27.4"/>
  <g>
    <line class="cls-18" x1="405.5" y1="124.5" x2="446.1" y2="109.3"/>
    <path class="cls-21" d="M397.8,127.3c4.1,0,9.4.6,13.1,2l-4.4-5.2v-6.8c-1.9,3.4-5.5,7.4-8.6,10Z"/>
  </g>
  <text class="cls-8" transform="translate(456.3 95.2)"><tspan x="0" y="0">Dick Schoof’s</tspan><tspan x="0" y="16.8">safe zone</tspan></text>
  <text/>
</svg>